<svg width="401" height="231" viewBox="0 0 401 231" fill="none" xmlns="http://www.w3.org/2000/svg">
<path d="M2.46668 42.6667C3.66668 45.6 36.3333 79.3333 92.7333 135.867C187.133 230.533 187.4 230.667 200.333 230.667C213.267 230.667 213.533 230.533 307.933 135.867C369.267 74.2667 396.867 45.8667 398.333 42.4C401.133 35.4667 400.867 23.7333 397.8 17.4667C393.667 9.46668 385.667 3.20001 377.4 1.33334C371.133 -0.133325 369 7.94187e-06 362.2 2.00001C354.333 4.26667 353.933 4.66667 277.267 81.0667L200.333 157.867L123.267 81.0667C46.7333 4.66667 46.3333 4.26667 38.4667 2C31.6667 3.91921e-06 29.5333 -0.133329 23.2667 1.33334C15 3.2 7.00001 9.46667 2.86668 17.4667C-0.19999 23.6 -0.466657 35.8667 2.46668 42.6667Z" fill="white"/>
</svg>
