<svg width="144" height="144" viewBox="0 0 144 144" fill="none" xmlns="http://www.w3.org/2000/svg">
<circle cx="72" cy="72" r="72" fill="green"/>
<path d="M51.8051 31.0351C49.7143 32.1408 49.1375 37.3973 47.5274 69.3715C47.0948 77.8182 46.5661 84.7786 46.0855 88.3132C45.8932 89.7089 45.725 90.9777 45.701 91.1227C45.701 91.2677 45.6048 91.1589 45.4847 90.887C45.1002 89.9445 44.5234 85.0505 43.9226 77.7095C42.8652 65.0213 42.2884 61.4142 40.8946 59.3841C40.2938 58.4778 39.5969 58.1334 38.3712 58.1334C37.6262 58.1334 37.1456 58.2603 36.5929 58.6047C34.8626 59.7104 34.0455 61.9761 32.8679 69.1178C31.9787 74.5555 31.2578 78.0539 30.8252 78.8877C30.5128 79.5039 30.1523 79.3227 29.143 77.9814C28.2297 76.785 26.8119 75.8062 25.6103 75.5525C25.1056 75.4437 22.9427 75.3531 20.7798 75.3531C16.9347 75.3531 16.8626 75.3531 16.2859 75.8062C15.5168 76.3681 15.5168 77.0569 16.2859 77.6188C16.8386 78.0539 16.9588 78.072 20.3473 78.072C22.2698 78.072 24.0962 78.1445 24.4327 78.2532C24.7932 78.3439 25.3459 78.797 25.7304 79.2864C27.8212 82.0416 30.9934 83.0022 32.916 81.4615C34.3819 80.3196 34.9827 78.4345 36.1122 71.456C37.0975 65.3657 37.9146 61.5955 38.203 61.813C38.6356 62.1574 39.4527 68.2115 40.0775 75.8062C41.3272 91.2496 42.1683 95.0016 44.5234 95.9261C45.4126 96.2705 46.446 96.2705 47.1189 95.9079C49.0895 94.8748 49.9546 90.307 50.8919 76.0781C51.3725 68.5377 51.4446 67.0695 51.8531 59.0397C52.3338 49.3242 52.9346 40.9138 53.1509 40.37C53.5114 39.4999 54.1362 49.3967 55.0975 71.1841C56.4432 101.636 57.1882 110.082 58.7263 112.348C59.2069 113.073 59.5674 113.236 60.7209 113.236C62.0427 113.236 62.7877 112.421 63.3404 110.336C64.2777 106.838 64.7583 101.618 65.6715 84.5067C66.4646 69.6978 67.5941 54.4357 67.9305 54.2001C68.1468 54.037 68.8197 61.4323 69.5166 71.1841C70.7663 88.8932 71.5593 93.6059 73.53 95.1466C74.0587 95.5635 74.3711 95.6542 75.3083 95.6542C78.6247 95.6542 79.4418 93.1528 80.5713 79.3408C81.2202 71.3473 81.7008 67.6314 82.3978 64.9669C82.8784 63.1724 83.5513 66.3807 84.2963 74.0843C85.0172 81.6065 85.8103 84.0898 87.9011 85.4674C89.5833 86.5912 92.371 86.1018 93.7649 84.4342C94.7021 83.3104 95.1347 82.1322 95.8557 78.7245C96.7208 74.4287 96.9371 73.9574 97.9464 74.1568C98.4271 74.2474 98.7875 74.6462 99.7488 76.1325C101.047 78.1807 101.864 78.8514 103.474 79.1777C104.627 79.4133 106.502 79.2683 107.583 78.8514C107.992 78.7064 109.073 78.0357 109.962 77.3832C111.476 76.2956 111.645 76.2231 112.486 76.3138C112.966 76.3681 114 76.6944 114.769 77.0388C116.691 77.9089 118.446 78.1264 123.492 78.0357C127.145 77.9814 127.674 77.9451 128.131 77.637C128.779 77.2019 128.803 76.2594 128.179 75.6975C127.722 75.2625 127.626 75.2625 122.699 75.1718L117.701 75.0812L115.826 74.3018C114.144 73.613 113.783 73.5405 112.342 73.5405C110.371 73.5405 109.602 73.8124 107.751 75.2443C106.31 76.3138 105.06 76.7488 104.267 76.4044C104.051 76.3138 103.402 75.48 102.849 74.5737C101.599 72.5798 100.446 71.7098 98.6674 71.3835C96.144 70.9304 94.2455 71.8367 93.3323 73.9393C93.0679 74.5737 92.5152 76.5675 92.1307 78.3983C91.4338 81.5159 90.7368 83.3285 90.2322 83.3285C89.8477 83.3285 89.2469 81.9509 88.8624 80.1927C88.6701 79.2864 88.2856 76.4406 88.0212 73.903C87.06 64.8763 86.4111 62.538 84.5847 61.2511C83.2869 60.3267 81.052 60.6167 80.0667 61.813C78.6007 63.6256 77.9759 66.9064 76.9665 78.1626C76.1735 86.9175 75.5967 91.1771 75.2843 90.742C74.7556 90.017 73.8664 81.2622 73.0013 67.8308C72.016 52.9675 71.295 48.6535 69.5887 47.3666C68.7476 46.7322 67.1855 46.7141 66.4405 47.3122C64.566 48.7985 63.773 54.9433 62.5474 76.6219C61.7062 91.9202 60.8892 103.702 60.7209 103.575C60.4566 103.376 59.6876 90.8508 58.8224 72.181C57.3084 40.0437 56.5874 32.6664 54.7129 31.1076C54.2083 30.6907 52.5501 30.6363 51.8051 31.0351Z" fill="white"/>
<g clip-path="url(#clip0_34_2)">
<path d="M102.163 25.5419C102.061 25.5661 101.905 25.6586 101.822 25.7447L101.664 25.9036L100.124 31.649C99.2763 34.813 98.5718 37.3858 98.5556 37.3711C97.929 36.8006 97.3187 36.5442 96.5799 36.5423C96.0122 36.5399 95.5941 36.655 95.0783 36.9659C94.5591 37.2706 94.2533 37.5861 93.9714 38.0939C93.6205 38.7277 93.5075 39.4871 93.6644 40.2156C93.7569 40.6585 94.172 41.3995 94.4979 41.7036C95.4533 42.6048 96.8086 42.746 97.9347 42.0722C98.4552 41.7626 98.761 41.4471 99.0429 40.9394C99.2289 40.6021 99.2852 40.4107 100.812 34.7135L102.387 28.8332L102.515 29.1256C102.781 29.7285 103.764 31.3907 104.239 32.0393C104.511 32.4116 104.817 32.829 104.919 32.975C105.692 34.0494 105.413 35.5231 104.297 36.2356C103.847 36.5231 103.112 36.6408 102.614 36.5075C102.239 36.4069 101.799 36.6606 101.698 37.0363C101.632 37.2819 101.724 37.5956 101.914 37.7703C102.063 37.9083 102.135 37.938 102.456 37.9982C104.004 38.2839 105.532 37.5576 106.348 36.1452C106.459 35.9532 106.556 35.685 106.674 35.2467C106.83 34.664 106.841 34.5844 106.814 34.1229C106.757 33.2095 106.52 32.6298 105.82 31.6939C105.233 30.9016 104.94 30.4566 104.569 29.8151C103.939 28.7121 103.738 28.2403 103.257 26.7694C103.016 26.0182 102.925 25.8132 102.804 25.7032C102.611 25.5382 102.4 25.4816 102.163 25.5419Z" fill="white"/>
<path d="M113.756 36.4268C110.781 36.4918 108.283 36.5606 108.207 36.5815C108.131 36.6024 108.003 36.6868 107.918 36.7777L107.761 36.9318L106.428 41.9066C105.694 44.6468 105.083 46.8728 105.066 46.8582C104.44 46.2876 103.829 46.0312 103.091 46.0294C102.523 46.027 102.105 46.1421 101.589 46.4529C101.07 46.7577 100.764 47.0732 100.482 47.5809C100.131 48.2147 100.018 48.9742 100.175 49.7027C100.268 50.1456 100.683 50.8865 101.009 51.1907C101.964 52.0919 103.319 52.2331 104.445 51.5593C104.966 51.2497 105.272 50.9342 105.554 50.4264C105.738 50.0939 105.795 49.9026 106.975 45.496L108.203 40.9161L112.744 40.8219C115.237 40.7724 117.31 40.7292 117.347 40.7236C117.393 40.7204 117.243 41.3358 116.612 43.6908C116.175 45.3234 115.805 46.6488 115.789 46.6342C115.162 46.0636 114.552 45.8072 113.813 45.8054C113.245 45.803 112.827 45.9181 112.311 46.2289C111.792 46.5337 111.486 46.8492 111.204 47.3569C110.853 47.9907 110.74 48.7502 110.897 49.4787C110.99 49.9216 111.405 50.6625 111.731 50.9666C112.686 51.8679 114.042 52.0091 115.168 51.3352C115.688 51.0257 115.994 50.7102 116.276 50.2024C116.462 49.8651 116.518 49.6737 118.18 43.4708C119.822 37.345 119.889 37.0741 119.847 36.8925C119.8 36.6578 119.556 36.4016 119.335 36.3473C119.244 36.3283 116.735 36.3631 113.756 36.4268Z" fill="white"/>
</g>
<defs>
<clipPath id="clip0_34_2">
<rect width="24.8727" height="25.5273" fill="white" transform="translate(97.5887 24.2182) rotate(15)"/>
</clipPath>
</defs>
</svg>
