<svg width="471" height="163" viewBox="0 0 471 163" fill="none" xmlns="http://www.w3.org/2000/svg">
<circle cx="72" cy="87" r="72" fill="black"/>
<path d="M51.8051 46.0351C49.7143 47.1408 49.1375 52.3973 47.5274 84.3715C47.0948 92.8182 46.5661 99.7786 46.0855 103.313C45.8932 104.709 45.725 105.978 45.701 106.123C45.701 106.268 45.6048 106.159 45.4847 105.887C45.1002 104.944 44.5234 100.05 43.9226 92.7095C42.8652 80.0213 42.2884 76.4142 40.8946 74.3841C40.2938 73.4778 39.5969 73.1334 38.3712 73.1334C37.6262 73.1334 37.1456 73.2603 36.5929 73.6047C34.8626 74.7104 34.0455 76.9761 32.8679 84.1178C31.9787 89.5555 31.2578 93.0539 30.8252 93.8877C30.5128 94.5039 30.1523 94.3227 29.143 92.9814C28.2297 91.785 26.8119 90.8062 25.6103 90.5525C25.1056 90.4437 22.9427 90.3531 20.7798 90.3531C16.9347 90.3531 16.8626 90.3531 16.2859 90.8062C15.5168 91.3681 15.5168 92.0569 16.2859 92.6188C16.8386 93.0539 16.9588 93.072 20.3473 93.072C22.2698 93.072 24.0962 93.1445 24.4327 93.2532C24.7932 93.3439 25.3459 93.797 25.7304 94.2864C27.8212 97.0416 30.9934 98.0022 32.916 96.4615C34.3819 95.3196 34.9827 93.4345 36.1122 86.456C37.0975 80.3657 37.9146 76.5955 38.203 76.813C38.6356 77.1574 39.4527 83.2115 40.0775 90.8062C41.3272 106.25 42.1683 110.002 44.5234 110.926C45.4126 111.27 46.446 111.27 47.1189 110.908C49.0895 109.875 49.9546 105.307 50.8919 91.0781C51.3725 83.5377 51.4446 82.0695 51.8531 74.0397C52.3338 64.3242 52.9346 55.9138 53.1509 55.37C53.5114 54.4999 54.1362 64.3967 55.0975 86.1841C56.4432 116.636 57.1882 125.082 58.7263 127.348C59.2069 128.073 59.5674 128.236 60.7209 128.236C62.0427 128.236 62.7877 127.421 63.3404 125.336C64.2777 121.838 64.7583 116.618 65.6715 99.5067C66.4646 84.6978 67.5941 69.4357 67.9305 69.2001C68.1468 69.037 68.8197 76.4323 69.5166 86.1841C70.7663 103.893 71.5593 108.606 73.53 110.147C74.0587 110.564 74.3711 110.654 75.3083 110.654C78.6247 110.654 79.4418 108.153 80.5713 94.3408C81.2202 86.3473 81.7008 82.6314 82.3978 79.9669C82.8784 78.1724 83.5513 81.3807 84.2963 89.0843C85.0172 96.6065 85.8103 99.0898 87.9011 100.467C89.5833 101.591 92.371 101.102 93.7649 99.4342C94.7021 98.3104 95.1347 97.1322 95.8557 93.7245C96.7208 89.4287 96.9371 88.9574 97.9464 89.1568C98.4271 89.2474 98.7875 89.6462 99.7488 91.1325C101.047 93.1807 101.864 93.8514 103.474 94.1777C104.627 94.4133 106.502 94.2683 107.583 93.8514C107.992 93.7064 109.073 93.0357 109.962 92.3832C111.476 91.2956 111.645 91.2231 112.486 91.3138C112.966 91.3681 114 91.6944 114.769 92.0388C116.691 92.9089 118.446 93.1264 123.492 93.0357C127.145 92.9814 127.674 92.9451 128.131 92.637C128.779 92.2019 128.803 91.2594 128.179 90.6975C127.722 90.2625 127.626 90.2625 122.699 90.1718L117.701 90.0812L115.826 89.3018C114.144 88.613 113.783 88.5405 112.342 88.5405C110.371 88.5405 109.602 88.8124 107.751 90.2443C106.31 91.3138 105.06 91.7488 104.267 91.4044C104.051 91.3138 103.402 90.48 102.849 89.5737C101.599 87.5798 100.446 86.7098 98.6674 86.3835C96.144 85.9304 94.2455 86.8367 93.3323 88.9393C93.0679 89.5737 92.5152 91.5675 92.1307 93.3983C91.4338 96.5159 90.7368 98.3285 90.2322 98.3285C89.8477 98.3285 89.2469 96.9509 88.8624 95.1927C88.6701 94.2864 88.2856 91.4406 88.0212 88.903C87.06 79.8763 86.4111 77.538 84.5847 76.2511C83.2869 75.3267 81.052 75.6167 80.0667 76.813C78.6007 78.6256 77.9759 81.9064 76.9665 93.1626C76.1735 101.917 75.5967 106.177 75.2843 105.742C74.7556 105.017 73.8664 96.2622 73.0013 82.8308C72.016 67.9675 71.295 63.6535 69.5887 62.3666C68.7476 61.7322 67.1855 61.7141 66.4405 62.3122C64.566 63.7985 63.773 69.9433 62.5474 91.6219C61.7062 106.92 60.8892 118.702 60.7209 118.575C60.4566 118.376 59.6876 105.851 58.8224 87.181C57.3084 55.0437 56.5874 47.6664 54.7129 46.1076C54.2083 45.6907 52.5501 45.6363 51.8051 46.0351Z" fill="white"/>
<path d="M174.49 133V44.7662H204.52C213.592 44.7662 220.685 46.5845 225.8 50.2209C230.915 53.8174 233.472 58.8525 233.472 65.3262C233.472 70.0415 231.974 74.2175 228.976 77.8539C225.979 81.4504 221.943 84.0279 216.868 85.5863V85.7662C223.102 86.5654 228.057 88.8831 231.734 92.7194C235.41 96.5556 237.248 101.311 237.248 106.985C237.248 114.898 234.411 121.212 228.737 125.927C223.062 130.642 215.47 133 205.959 133H174.49ZM191.573 57.8934V81.0308H200.864C205.459 81.0308 209.056 79.9519 211.653 77.794C214.251 75.5961 215.55 72.5191 215.55 68.563C215.55 61.4499 210.475 57.8934 200.324 57.8934H191.573ZM191.573 94.2179V119.873H203.322C208.357 119.873 212.273 118.714 215.07 116.396C217.867 114.078 219.266 110.862 219.266 106.746C219.266 98.3938 213.751 94.2179 202.722 94.2179H191.573ZM303.426 106.206H261.347C262.027 116.916 268.101 122.27 279.569 122.27C286.563 122.27 292.797 120.432 298.271 116.756V129.463C292.437 132.86 284.944 134.558 275.793 134.558C266.003 134.558 258.37 131.721 252.896 126.047C247.461 120.372 244.743 112.44 244.743 102.25C244.743 92.2598 247.661 84.1478 253.495 77.9138C259.369 71.64 266.702 68.503 275.493 68.503C284.285 68.503 291.138 71.2004 296.053 76.5951C300.969 81.9899 303.426 89.4026 303.426 98.8334V106.206ZM287.662 95.2369C287.662 85.2467 283.546 80.2516 275.314 80.2516C271.877 80.2516 268.84 81.6102 266.202 84.3276C263.605 87.0449 261.987 90.6814 261.347 95.2369H287.662ZM315.117 74.0177C317.954 72.3793 321.631 71.0605 326.146 70.0615C330.662 69.0225 334.718 68.503 338.314 68.503C355.338 68.503 363.849 77.1346 363.849 94.3977V133H347.905V123.709H347.605C343.369 130.942 337.076 134.558 328.724 134.558C322.65 134.558 317.834 132.86 314.278 129.463C310.721 126.027 308.943 121.431 308.943 115.677C308.943 103.649 316.096 96.6755 330.402 94.7574L347.965 92.3597C347.965 84.3276 344.049 80.3115 336.216 80.3115C328.744 80.3115 321.711 82.6492 315.117 87.3246V74.0177ZM335.437 104.228C328.244 105.147 324.648 108.364 324.648 113.879C324.648 116.356 325.507 118.374 327.225 119.933C328.944 121.491 331.261 122.27 334.178 122.27C338.175 122.27 341.471 120.872 344.069 118.075C346.666 115.237 347.965 111.681 347.965 107.405V102.61L335.437 104.228ZM413.244 132.341C410.406 133.779 406.45 134.499 401.375 134.499C388.468 134.499 382.014 127.665 382.014 113.999V82.7092H371.584V70.0016H382.014V55.9154L398.678 51.0601V70.0016H413.244V82.7092H398.678V111.061C398.678 118.015 401.415 121.491 406.89 121.491C409.168 121.491 411.285 120.852 413.244 119.573V132.341ZM420.499 116.816C426.733 120.732 432.887 122.69 438.961 122.69C446.793 122.69 450.709 120.472 450.709 116.037C450.709 112.96 447.612 110.362 441.418 108.244C432.387 105.207 426.653 102.23 424.215 99.3129C421.778 96.3558 420.559 92.5795 420.559 87.984C420.559 81.9099 423.036 77.1546 427.992 73.7179C432.947 70.2413 439.32 68.503 447.113 68.503C452.548 68.503 457.982 69.3622 463.417 71.0805V84.6872C458.502 81.7701 453.127 80.3115 447.293 80.3115C444.216 80.3115 441.738 80.8909 439.86 82.0498C437.982 83.2087 437.043 84.7472 437.043 86.6653C437.043 89.8222 439.66 92.3198 444.895 94.158C450.849 96.3159 455.225 98.1341 458.022 99.6126C460.819 101.051 462.997 103.029 464.556 105.547C466.114 108.064 466.894 111.021 466.894 114.418C466.894 120.812 464.336 125.767 459.221 129.284C454.146 132.8 447.433 134.558 439.081 134.558C432.048 134.558 425.854 133.44 420.499 131.202V116.816Z" fill="black"/>
<g clip-path="url(#clip0_24_17)">
<path d="M102.163 40.5419C102.061 40.5661 101.905 40.6586 101.822 40.7447L101.664 40.9036L100.124 46.649C99.2763 49.813 98.5718 52.3858 98.5556 52.3711C97.929 51.8006 97.3187 51.5442 96.5799 51.5423C96.0122 51.5399 95.5941 51.655 95.0783 51.9659C94.5591 52.2706 94.2533 52.5861 93.9714 53.0939C93.6205 53.7277 93.5075 54.4871 93.6644 55.2156C93.7569 55.6585 94.172 56.3995 94.4979 56.7036C95.4533 57.6048 96.8086 57.746 97.9347 57.0722C98.4552 56.7626 98.761 56.4471 99.0429 55.9394C99.2289 55.6021 99.2852 55.4107 100.812 49.7135L102.387 43.8332L102.515 44.1256C102.781 44.7285 103.764 46.3907 104.239 47.0393C104.511 47.4116 104.817 47.829 104.919 47.975C105.692 49.0494 105.413 50.5231 104.297 51.2356C103.847 51.5231 103.112 51.6408 102.614 51.5075C102.239 51.4069 101.799 51.6606 101.698 52.0363C101.632 52.2819 101.724 52.5956 101.914 52.7703C102.063 52.9083 102.135 52.938 102.456 52.9982C104.004 53.2839 105.532 52.5576 106.348 51.1452C106.459 50.9532 106.556 50.685 106.674 50.2467C106.83 49.664 106.841 49.5844 106.814 49.1229C106.757 48.2095 106.52 47.6298 105.82 46.6939C105.233 45.9016 104.94 45.4566 104.569 44.8151C103.939 43.7121 103.738 43.2403 103.257 41.7694C103.016 41.0182 102.925 40.8132 102.804 40.7032C102.611 40.5382 102.4 40.4816 102.163 40.5419Z" fill="white"/>
<path d="M113.756 51.4268C110.781 51.4918 108.283 51.5606 108.207 51.5815C108.131 51.6024 108.003 51.6868 107.918 51.7777L107.761 51.9318L106.428 56.9066C105.694 59.6468 105.083 61.8728 105.066 61.8582C104.44 61.2876 103.829 61.0312 103.091 61.0294C102.523 61.027 102.105 61.1421 101.589 61.4529C101.07 61.7577 100.764 62.0732 100.482 62.5809C100.131 63.2147 100.018 63.9742 100.175 64.7027C100.268 65.1456 100.683 65.8865 101.009 66.1907C101.964 67.0919 103.319 67.2331 104.445 66.5593C104.966 66.2497 105.272 65.9342 105.554 65.4264C105.738 65.0939 105.795 64.9026 106.975 60.496L108.203 55.9161L112.744 55.8219C115.237 55.7724 117.31 55.7292 117.347 55.7236C117.393 55.7204 117.243 56.3358 116.612 58.6908C116.175 60.3234 115.805 61.6488 115.789 61.6342C115.162 61.0636 114.552 60.8072 113.813 60.8054C113.245 60.803 112.827 60.9181 112.311 61.2289C111.792 61.5337 111.486 61.8492 111.204 62.3569C110.853 62.9907 110.74 63.7502 110.897 64.4787C110.99 64.9216 111.405 65.6625 111.731 65.9666C112.686 66.8679 114.042 67.0091 115.168 66.3352C115.688 66.0257 115.994 65.7102 116.276 65.2024C116.462 64.8651 116.518 64.6737 118.18 58.4708C119.822 52.345 119.889 52.0741 119.847 51.8925C119.8 51.6578 119.556 51.4016 119.335 51.3473C119.244 51.3283 116.735 51.3631 113.756 51.4268Z" fill="white"/>
</g>
<defs>
<clipPath id="clip0_24_17">
<rect width="24.8727" height="25.5273" fill="white" transform="translate(97.5887 39.2182) rotate(15)"/>
</clipPath>
</defs>
</svg>
