<svg width="182" height="182" viewBox="0 0 182 182" fill="none" xmlns="http://www.w3.org/2000/svg">
<g clip-path="url(#clip0_36_7)">
<path d="M144.498 0.462116C141.263 1.52852 138.917 3.59024 137.495 6.57618C136.678 8.31797 136.5 9.1711 136.5 11.375C136.5 14.9652 137.531 17.1691 140.695 20.3328L143.041 22.75H90.8223C60.7141 22.75 36.8266 22.8922 34.4805 23.1055C17.0981 24.5273 3.37696 37.1465 0.533212 54.2801C0.0355562 57.2305 -0.0355376 60.5008 0.0711031 75.8926C0.177744 93.8793 0.177744 94.0215 0.995322 95.6211C2.23946 98.1805 3.66134 99.6734 6.11407 100.989C8.17579 102.091 8.60235 102.197 11.375 102.197C14.1477 102.197 14.5742 102.091 16.6359 100.989C19.1242 99.6379 20.1906 98.5359 21.6125 95.8344L22.5723 94.0215L22.75 75.3238L22.9277 56.6617L24.2785 53.9602C26.5535 49.3391 30.4637 46.5309 35.5469 45.8555C38.7461 45.4645 142.898 45.3578 142.898 45.7844C142.898 45.9266 141.903 46.993 140.73 48.166C139.379 49.4813 138.171 51.1164 137.531 52.4316C135.434 56.8039 136.5 62.3492 140.055 65.5484C142.436 67.6813 144.356 68.4277 147.697 68.4277C152.532 68.4277 152.567 68.3922 167.461 53.427C182 38.8172 181.822 39.066 181.822 34.3027C181.822 29.5395 182 29.7883 167.461 15.1785C153.029 0.675397 152.638 0.355475 148.302 0.142194C146.915 0.0711002 145.316 0.213288 144.498 0.462116Z" fill="black"/>
<path d="M167.959 79.9449C164.689 80.798 161.809 83.1441 160.316 86.2012L159.428 87.9785L159.25 106.463C159.108 118.798 158.895 125.338 158.646 126.085C156.691 131.666 152.176 135.398 146.453 136.145C143.254 136.536 39.1015 136.642 39.1015 136.216C39.1015 136.073 40.0969 135.007 41.2699 133.834C42.6207 132.519 43.8293 130.884 44.4691 129.568C46.5664 125.196 45.5 119.651 41.9453 116.452C39.5637 114.319 37.6441 113.572 34.3027 113.572C29.4683 113.572 29.4328 113.608 14.5387 128.573C-2.11909e-05 143.183 0.177714 142.934 0.177714 147.697C0.177714 152.461 -2.11909e-05 152.212 14.5387 166.821C29.4328 181.787 29.4683 181.822 34.3027 181.822C37.6441 181.822 39.5637 181.076 41.9453 178.943C44.2558 176.846 45.5 173.931 45.5 170.625C45.5 167.035 44.4691 164.831 41.3054 161.632L38.9594 159.25H91.1777C121.286 159.25 145.173 159.108 147.52 158.895C154.273 158.326 159.925 156.371 165.435 152.709C173.966 146.986 179.761 137.957 181.467 127.72C181.964 124.77 182.036 121.499 181.929 106.107L181.822 87.9785L180.614 85.7391C178.587 82.0066 175.495 80.0516 171.371 79.8027C170.092 79.7316 168.563 79.7672 167.959 79.9449Z" fill="black"/>
</g>
<path d="M104.72 124.68C104.72 126.76 103.88 128.44 102.2 129.72C100.6 130.92 98.48 131.52 95.84 131.52C93.28 131.52 91.36 130.92 90.08 129.72C88.8 128.52 88.16 126.84 88.16 124.68V76.2C86.72 78.04 85.2 79.8 83.6 81.48C83.12 81.96 82.4 82.36 81.44 82.68C80.56 83 79.64 83.16 78.68 83.16C76.28 83.16 74.4 82.56 73.04 81.36C71.68 80.16 71 78.56 71 76.56C71 75.92 71.2 75.12 71.6 74.16C72 73.12 72.6 72.16 73.4 71.28C77.32 66.56 81.56 61.16 86.12 55.08C86.84 54.04 88 53.2 89.6 52.56C91.2 51.84 92.88 51.48 94.64 51.48C97.52 51.48 99.88 52.24 101.72 53.76C103.64 55.2 104.6 57.08 104.6 59.4L104.72 124.68Z" fill="black"/>
<defs>
<clipPath id="clip0_36_7">
<rect width="182" height="182" fill="white"/>
</clipPath>
</defs>
</svg>
