<?xml version="1.0" standalone="no"?>
<!DOCTYPE svg PUBLIC "-//W3C//DTD SVG 20010904//EN"
 "http://www.w3.org/TR/2001/REC-SVG-20010904/DTD/svg10.dtd">
<svg version="1.0" xmlns="http://www.w3.org/2000/svg"
 width="512.000000pt" height="512.000000pt" viewBox="0 0 512.000000 512.000000"
 preserveAspectRatio="xMidYMid meet">

<g transform="translate(0.000000,512.000000) scale(0.100000,-0.100000)"
fill="#000000" stroke="none">
<path d="M4054 4760 c-86 -27 -181 -126 -205 -213 -17 -63 -7 -184 20 -235 12
-23 51 -74 87 -112 l66 -70 -303 0 c-340 0 -437 -10 -590 -60 -202 -65 -377
-179 -551 -358 -63 -65 -141 -155 -174 -202 -33 -47 -262 -400 -508 -784 -247
-385 -466 -723 -487 -752 -91 -124 -208 -228 -314 -282 -110 -55 -116 -56
-500 -62 -356 -5 -360 -6 -410 -30 -64 -31 -124 -91 -155 -155 -33 -69 -34
-199 -2 -265 34 -71 75 -113 144 -151 l63 -34 385 0 c361 0 391 2 478 22 171
41 323 111 475 221 102 73 284 262 369 383 37 52 270 412 518 799 248 387 473
731 500 764 127 160 285 267 435 295 33 6 180 11 343 11 l284 0 -66 -70 c-98
-104 -111 -134 -111 -255 0 -114 16 -156 85 -225 69 -69 111 -85 225 -85 86 0
106 3 145 24 29 15 169 148 406 385 412 412 409 407 409 546 0 139 3 134 -409
546 -245 245 -376 369 -406 385 -51 25 -190 36 -246 19z"/>
<path d="M245 4121 c-90 -22 -173 -90 -215 -176 -34 -69 -35 -198 -2 -265 34
-71 75 -113 144 -151 l63 -34 360 -6 c247 -4 373 -10 400 -19 98 -31 197 -93
298 -188 111 -104 212 -137 326 -108 148 38 240 154 241 302 0 126 -40 197
-190 329 -193 170 -413 275 -649 310 -102 16 -717 20 -776 6z"/>
<path d="M4054 2260 c-86 -27 -181 -126 -205 -213 -17 -63 -7 -184 20 -235 12
-23 51 -74 87 -112 l66 -70 -288 0 c-316 0 -381 8 -475 55 -70 35 -165 103
-209 150 -54 57 -111 93 -179 111 -52 15 -71 16 -122 6 -164 -30 -269 -150
-269 -308 0 -127 41 -197 190 -329 141 -124 295 -213 459 -266 154 -49 250
-59 590 -59 l303 0 -66 -70 c-98 -104 -111 -134 -111 -255 0 -114 16 -156 85
-225 69 -69 111 -85 225 -85 86 0 106 3 145 24 29 15 169 148 406 385 412 412
408 407 408 546 0 139 4 134 -408 546 -245 245 -376 369 -406 385 -51 25 -190
36 -246 19z"/>
</g>
</svg>
