<?xml version="1.0" standalone="no"?>
<!DOCTYPE svg PUBLIC "-//W3C//DTD SVG 20010904//EN"
 "http://www.w3.org/TR/2001/REC-SVG-20010904/DTD/svg10.dtd">
<svg version="1.0" xmlns="http://www.w3.org/2000/svg"
 width="161.000000pt" height="184.000000pt" viewBox="0 0 161.000000 184.000000"
 preserveAspectRatio="xMidYMid meet">

<g transform="translate(0.000000,184.000000) scale(0.100000,-0.100000)"
fill="#000000" stroke="none">
<path d="M661 1573 c-296 -171 -483 -285 -516 -315 -85 -77 -145 -215 -145
-333 0 -64 22 -150 56 -217 55 -108 103 -142 599 -428 253 -145 474 -266 491
-268 22 -3 39 4 62 23 l32 27 0 861 c-1 662 -3 866 -13 878 -17 22 -51 39 -79
39 -13 0 -232 -120 -487 -267z m399 -648 l0 -656 -22 12 c-132 69 -741 429
-766 453 -58 54 -77 100 -77 191 0 90 19 136 74 190 27 26 762 461 784 464 4
1 7 -294 7 -654z"/>
<path d="M1420 925 l0 -306 28 15 c43 22 101 92 130 155 21 45 26 71 26 137 0
72 -4 89 -32 147 -30 60 -118 157 -143 157 -5 0 -9 -133 -9 -305z"/>
</g>
</svg>
