<svg width="166" height="244" viewBox="0 0 166 244" fill="none" xmlns="http://www.w3.org/2000/svg">
<path d="M88.1333 35.6C48.6667 58.4 23.7333 73.6 19.3333 77.6C8 87.8666 -3.8147e-06 106.267 -3.8147e-06 122C-3.8147e-06 130.533 2.93333 142 7.46666 150.933C14.8 165.333 21.2 169.867 87.3333 208C121.067 227.333 150.533 243.467 152.8 243.733C155.733 244.133 158 243.2 161.067 240.667L165.333 237.067V122.267C165.2 34 164.933 6.79998 163.6 5.19998C161.333 2.26664 156.8 -2.49234e-05 153.067 -2.49234e-05C151.333 -2.49234e-05 122.133 16 88.1333 35.6ZM141.333 122V209.467L138.4 207.867C120.8 198.667 39.6 150.667 36.2667 147.467C28.5333 140.267 26 134.133 26 122C26 110 28.5333 103.867 35.8667 96.6666C39.4667 93.2 137.467 35.2 140.4 34.8C140.933 34.6666 141.333 74 141.333 122Z" fill="black"/>
</svg>
